# xmcd
#
# Track frame offsets:
#	150
#	2238
#	136763
#	157389
#	179805
#	192167
#	225906
#	247574
#	273975
#
# Disc length: 4113 seconds
#
# Revision: 1
# Processed by: cddbd v1.5.2PL0 Copyright (c) Steve Scherf et al.
# Submitted via: audiograbber 1.83.01
#
DISCID=6f100f09
DTITLE=Grateful Dead - 69-12-12 Thelma Theatre, Los Angeles CA
DYEAR=1900
DGENRE=
TTITLE0=Stage Banter 2
TTITLE1=Turn On Your Lovelight
TTITLE2=Hard To Handle
TTITLE3=Casey Jones
TTITLE4=Mama Tried
TTITLE5=High Time
TTITLE6=Dire Wolf
TTITLE7=Good Lovin > Drums > Good Lovin
TTITLE8=King Bee
EXTD=
EXTT0=
EXTT1=
EXTT2=
EXTT3=
EXTT4=
EXTT5=
EXTT6=
EXTT7=
EXTT8=
PLAYORDER=
